<svg width="32" height="32" viewBox="0 0 32 32" fill="none" xmlns="http://www.w3.org/2000/svg">
<path d="M7.99912 10.9082H10.8984V7.99907H7.99912V10.9082Z" fill="white"/>
<path d="M7.99912 15.2734H10.8984V12.3643H7.99912V15.2734Z" fill="white"/>
<path d="M7.99912 19.6367H10.8984V16.7276H7.99912V19.6367Z" fill="white"/>
<path d="M12.3663 10.9082H15.2656V7.99907H12.3663V10.9082Z" fill="white"/>
<path d="M12.3663 15.2734H15.2656V12.3643H12.3663V15.2734Z" fill="white"/>
<path d="M12.3663 19.6367H15.2656V16.7276H12.3663V19.6367Z" fill="white"/>
<path d="M19.6298 8H16.7305V10.9091H19.6298V8Z" fill="white"/>
<path d="M19.6298 12.3633H16.7305V15.2724H19.6298V12.3633Z" fill="white"/>
<path d="M19.6298 16.7285H16.7305V19.6377H19.6298V16.7285Z" fill="white"/>
<path d="M23.997 8H21.0977V10.9091H23.997V8Z" fill="white"/>
<path d="M23.997 12.3633H21.0977V15.2724H23.997V12.3633Z" fill="white"/>
<path d="M23.997 16.7285H21.0977V19.6377H23.997V16.7285Z" fill="white"/>
<path d="M7.99912 24.002H10.8984V21.0928H7.99912V24.002Z" fill="white"/>
<path d="M12.3663 24.002H15.2656V21.0928H12.3663V24.002Z" fill="white"/>
<path d="M19.6298 21.0918H16.7305V24.0009H19.6298V21.0918Z" fill="white"/>
<path d="M23.997 21.0918H21.0977V24.0009H23.997V21.0918Z" fill="white"/>
</svg>
