<svg width="108" height="25" viewBox="0 0 108 25" fill="none" xmlns="http://www.w3.org/2000/svg">
<path d="M19.3604 17.9363L21.7269 20.3054C19.5171 23.1505 16.0317 24.992 12.1023 24.992C5.41827 24.992 0 19.681 0 13.1298C0 6.57858 5.41827 1.26758 12.102 1.26758C16.0317 1.26758 19.5165 3.10938 21.7266 5.95385L19.3373 8.34605C17.8401 6.10318 15.1858 4.7523 12.3004 4.7523C7.69635 4.7523 3.6607 8.49571 3.6607 13.1301C3.6607 17.7645 7.69635 21.5079 12.3004 21.5079C15.1861 21.5076 17.8635 20.1785 19.3604 17.9363Z" fill="white"/>
<path d="M35.9459 8.93164V24.79L30.7049 24.9809C25.7061 24.9809 23.1465 21.9719 23.1465 17.0587V8.93164H26.5781V17.059C26.5781 19.8127 28.0763 21.6508 30.8277 21.6508L32.506 21.5573V8.93164H35.9459Z" fill="white"/>
<path d="M44.3478 12.1897V21.5854H48.8512V24.8183H44.3478C42.45 24.8183 40.9119 23.2788 40.9119 21.3792V12.1897H37.7813V8.95636H40.9119V4.41016H44.3478V8.95636H48.8512V12.1897H44.3478Z" fill="white"/>
<path d="M71.7733 8.92773L67.4947 24.79H63.6036L60.9747 15.0452L58.3458 24.79H54.4547L50.1758 8.92773H53.6117L56.4001 19.8781L59.1884 8.92773H62.76L65.549 19.8781L68.338 8.92773H71.7733Z" fill="white"/>
<path d="M76.7648 8.94141H73.3242V24.8031H76.7648V8.94141Z" fill="white"/>
<path d="M90.0601 19.8533C90.0601 22.6859 87.4602 24.9906 84.0137 24.9906C82.3092 24.9906 79.9556 24.0308 78.6172 22.5514L80.9309 20.2613C81.4379 20.9673 82.8555 21.8078 84.0137 21.8078C85.4617 21.8078 86.4301 20.9125 86.4301 19.8533C86.4301 18.7942 85.8442 18.0545 84.3282 17.8989C81.4055 17.5992 79.1964 15.807 79.1964 13.236C79.1964 10.6651 81.3897 8.57422 84.3282 8.57422C85.9251 8.57422 87.7493 9.18507 89.0356 10.3212L86.7829 12.541C86.2545 12.0589 85.4683 11.7629 84.515 11.7629C83.3773 11.7629 82.7179 12.4346 82.7179 13.236C82.7179 14.0385 83.1941 14.6302 84.3286 14.7161C87.7902 14.9781 90.0601 17.0211 90.0601 19.8533Z" fill="white"/>
<path d="M103.621 20.2233L106.029 22.3442C104.429 24.1074 102.161 25.0007 99.2858 25.0007C94.8343 25.0007 91.2129 21.3326 91.2129 16.8234C91.2129 12.3146 94.8343 8.64648 99.2858 8.64648C103.737 8.64648 107 12.3146 107 16.8234L107.001 18.1614H94.9739C95.4228 20.4231 97.0319 21.8183 99.2855 21.8183C101.202 21.8186 102.66 21.2818 103.621 20.2233ZM95.0928 14.9889H103.187C102.729 12.8983 101.405 11.8289 99.2858 11.8289C97.1985 11.8289 95.6647 13.01 95.0928 14.9889Z" fill="white"/>
<path d="M75.0403 7.4062L72.3203 3.70343L75.0403 0L77.7604 3.70343L75.0403 7.4062Z" fill="#FF4848"/>
</svg>
